# xmcd
#
# Track frame offsets: 
#        182
#        16077
#        38157
#        55730
#        70070
#        87205
#        103762
#        120625
#        138120
#        155995
#        187850
#
# Disc length: 2797 seconds
#
# Revision: 3
# Processed by: cddbd v1.5.2PL0 Copyright (c) Steve Scherf et al.
# Submitted via: ExactAudioCopy v0.95a4
#
DISCID=870aeb0b
DTITLE=Lenny Kravitz - Are You Gonna Go My Way
DYEAR=1993
DGENRE=Rock
TTITLE0=Are You Gonna Go My Way
TTITLE1=Believe
TTITLE2=Come On and Love Me
TTITLE3=Heaven Help
TTITLE4=Just Be a Woman
TTITLE5=Is There Any Love in Your Heart
TTITLE6=Black Girl
TTITLE7=My Love
TTITLE8=Sugar
TTITLE9=Sister
TTITLE10=Eleutheria
EXTD=
EXTT0=
EXTT1=
EXTT2=
EXTT3=
EXTT4=
EXTT5=
EXTT6=
EXTT7=
EXTT8=
EXTT9=
EXTT10=
PLAYORDER=
